# 3ds Max Wavefront OBJ Exporter v0.97b - (c)2007 guruware
# File Created: 10.03.2015 01:50:31

mtllib Box_Test_OBJ.mtl

#
# object Box001
#

v  0.2333 -0.4068 -0.3659
v  0.2333 -0.4068 0.3695
v  -0.2356 -0.4068 0.3695
v  -0.2356 -0.4068 -0.3659
v  -0.2356 0.3932 -0.3659
v  -0.2356 0.3932 0.3695
v  0.2333 0.3932 0.3695
v  0.2333 0.3932 -0.3659
v  -0.2356 0.3609 0.4018
v  -0.2356 -0.3745 0.4018
v  0.2333 -0.3745 0.4018
v  0.2333 0.3609 0.4018
v  0.3989 0.3609 0.3695
v  0.3989 -0.3745 0.3695
v  0.3989 -0.3745 -0.3659
v  0.3989 0.3609 -0.3659
v  0.2333 0.3609 -0.3982
v  0.2333 -0.3745 -0.3982
v  -0.2356 -0.3745 -0.3982
v  -0.2356 0.3609 -0.3982
v  -0.4011 0.3609 -0.3659
v  -0.4011 -0.3745 -0.3659
v  -0.4011 -0.3745 0.3695
v  -0.4011 0.3609 0.3695
v  -0.2356 0.4432 0.4518
v  -0.2356 0.3609 0.4518
v  0.2333 0.3609 0.4518
v  0.2333 0.4432 0.4518
v  0.2333 -0.4568 0.4518
v  0.2333 -0.3745 0.4518
v  -0.2356 -0.3745 0.4518
v  -0.2356 -0.4568 0.4518
v  0.4489 0.4432 0.3695
v  0.4489 0.3609 0.3695
v  0.4489 0.3609 -0.3659
v  0.4489 0.4432 -0.3659
v  0.4489 -0.4568 -0.3659
v  0.4489 -0.3745 -0.3659
v  0.4489 -0.3745 0.3695
v  0.4489 -0.4568 0.3695
v  0.2333 0.4432 -0.4482
v  0.2333 0.3609 -0.4482
v  -0.2356 0.3609 -0.4482
v  -0.2356 0.4432 -0.4482
v  -0.2356 -0.4568 -0.4482
v  -0.2356 -0.3745 -0.4482
v  0.2333 -0.3745 -0.4482
v  0.2333 -0.4568 -0.4482
v  -0.4511 0.4432 -0.3659
v  -0.4511 0.3609 -0.3659
v  -0.4511 0.3609 0.3695
v  -0.4511 0.4432 0.3695
v  -0.4511 -0.4568 0.3695
v  -0.4511 -0.3745 0.3695
v  -0.4511 -0.3745 -0.3659
v  -0.4511 -0.4568 -0.3659
v  0.2333 -0.4568 -0.3659
v  -0.2356 -0.4568 -0.3659
v  -0.2356 -0.4568 0.3695
v  0.2333 -0.4568 0.3695
v  -0.2356 0.4432 -0.3659
v  0.2333 0.4432 -0.3659
v  0.2333 0.4432 0.3695
v  -0.2356 0.4432 0.3695
v  0.4489 0.3609 0.4518
v  0.4489 -0.3745 0.4518
v  0.4489 -0.3745 -0.4482
v  0.4489 0.3609 -0.4482
v  -0.4511 0.3609 -0.4482
v  -0.4511 -0.3745 -0.4482
v  -0.4511 -0.3745 0.4518
v  -0.4511 0.3609 0.4518
v  0.4489 0.4432 0.4518
v  0.4489 0.4432 -0.4482
v  0.4489 -0.4568 -0.4482
v  0.4489 -0.4568 0.4518
v  -0.4511 0.4432 -0.4482
v  -0.4511 0.4432 0.4518
v  -0.4511 -0.4568 0.4518
v  -0.4511 -0.4568 -0.4482
v  0.3666 -0.4568 0.3695
v  0.3666 -0.4568 -0.3659
v  -0.3689 -0.4568 -0.3659
v  -0.3689 -0.4568 0.3695
v  -0.3689 0.4432 0.3695
v  -0.3689 0.4432 -0.3659
v  0.3666 0.4432 -0.3659
v  0.3666 0.4432 0.3695
v  -0.3689 -0.3745 0.4518
v  -0.3689 0.3609 0.4518
v  0.3666 0.3609 0.4518
v  0.3666 -0.3745 0.4518
v  0.3666 -0.3745 -0.4482
v  0.3666 0.3609 -0.4482
v  -0.3689 0.3609 -0.4482
v  -0.3689 -0.3745 -0.4482
v  -0.3689 0.4432 0.4518
v  0.3666 0.4432 0.4518
v  0.3666 -0.4568 0.4518
v  -0.3689 -0.4568 0.4518
v  0.3666 0.4432 -0.4482
v  -0.3689 0.4432 -0.4482
v  -0.3689 -0.4568 -0.4482
v  0.3666 -0.4568 -0.4482
v  0.3666 -0.4068 -0.3659
v  0.3666 -0.4068 0.3695
v  0.3336 -0.4068 0.3695
v  0.3336 -0.4068 -0.3659
v  -0.3689 -0.4068 0.3695
v  -0.3689 -0.4068 -0.3659
v  -0.3359 -0.4068 -0.3659
v  -0.3359 -0.4068 0.3695
v  -0.3689 0.3932 -0.3659
v  -0.3689 0.3932 0.3695
v  -0.3359 0.3932 0.3695
v  -0.3359 0.3932 -0.3659
v  0.3666 0.3932 0.3695
v  0.3666 0.3932 -0.3659
v  0.3336 0.3932 -0.3659
v  0.3336 0.3932 0.3695
v  -0.3689 0.3609 0.4018
v  -0.3689 -0.3745 0.4018
v  -0.3359 -0.3745 0.4018
v  -0.3359 0.3609 0.4018
v  0.3666 -0.3745 0.4018
v  0.3666 0.3609 0.4018
v  0.3336 0.3609 0.4018
v  0.3336 -0.3745 0.4018
v  0.3666 0.3609 -0.3982
v  0.3666 -0.3745 -0.3982
v  0.3336 -0.3745 -0.3982
v  0.3336 0.3609 -0.3982
v  -0.3689 -0.3745 -0.3982
v  -0.3689 0.3609 -0.3982
v  -0.3359 0.3609 -0.3982
v  -0.3359 -0.3745 -0.3982
v  -0.3359 0.3609 0.4518
v  -0.3359 0.4432 0.4518
v  0.3336 0.4432 0.4518
v  0.3336 0.3609 0.4518
v  0.3336 -0.3745 0.4518
v  0.3336 -0.4568 0.4518
v  -0.3359 -0.4568 0.4518
v  -0.3359 -0.3745 0.4518
v  0.3336 0.3609 -0.4482
v  0.3336 0.4432 -0.4482
v  -0.3359 0.4432 -0.4482
v  -0.3359 0.3609 -0.4482
v  -0.3359 -0.3745 -0.4482
v  -0.3359 -0.4568 -0.4482
v  0.3336 -0.4568 -0.4482
v  0.3336 -0.3745 -0.4482
v  0.3336 -0.4568 -0.3659
v  -0.3359 -0.4568 -0.3659
v  -0.3359 -0.4568 0.3695
v  0.3336 -0.4568 0.3695
v  -0.3359 0.4432 -0.3659
v  0.3336 0.4432 -0.3659
v  0.3336 0.4432 0.3695
v  -0.3359 0.4432 0.3695
v  0.3336 -0.5068 -0.3659
v  0.3336 -0.5068 0.3695
v  0.2333 -0.5068 0.3695
v  0.2333 -0.5068 -0.3659
v  -0.3359 -0.5068 0.3695
v  -0.3359 -0.5068 -0.3659
v  -0.2356 -0.5068 -0.3659
v  -0.2356 -0.5068 0.3695
v  -0.3359 0.4932 -0.3659
v  -0.3359 0.4932 0.3695
v  -0.2356 0.4932 0.3695
v  -0.2356 0.4932 -0.3659
v  0.3336 0.4932 0.3695
v  0.3336 0.4932 -0.3659
v  0.2333 0.4932 -0.3659
v  0.2333 0.4932 0.3695
v  -0.3359 0.3609 0.5018
v  -0.3359 -0.3745 0.5018
v  -0.2356 -0.3745 0.5018
v  -0.2356 0.3609 0.5018
v  0.3336 -0.3745 0.5018
v  0.3336 0.3609 0.5018
v  0.2333 0.3609 0.5018
v  0.2333 -0.3745 0.5018
v  0.3336 0.3609 -0.4982
v  0.3336 -0.3745 -0.4982
v  0.2333 -0.3745 -0.4982
v  0.2333 0.3609 -0.4982
v  -0.3359 -0.3745 -0.4982
v  -0.3359 0.3609 -0.4982
v  -0.2356 0.3609 -0.4982
v  -0.2356 -0.3745 -0.4982
v  -0.3359 0.4432 0.5018
v  -0.2356 0.4432 0.5018
v  0.3336 0.4432 0.5018
v  0.2333 0.4432 0.5018
v  0.3336 -0.4568 0.5018
v  0.2333 -0.4568 0.5018
v  -0.3359 -0.4568 0.5018
v  -0.2356 -0.4568 0.5018
v  0.3336 0.4432 -0.4982
v  0.2333 0.4432 -0.4982
v  -0.3359 0.4432 -0.4982
v  -0.2356 0.4432 -0.4982
v  -0.3359 -0.4568 -0.4982
v  -0.2356 -0.4568 -0.4982
v  0.3336 -0.4568 -0.4982
v  0.2333 -0.4568 -0.4982
v  0.3336 -0.5068 -0.4482
v  0.2333 -0.5068 -0.4482
v  -0.3359 -0.5068 -0.4482
v  -0.2356 -0.5068 -0.4482
v  -0.3359 -0.5068 0.4518
v  -0.2356 -0.5068 0.4518
v  0.3336 -0.5068 0.4518
v  0.2333 -0.5068 0.4518
v  -0.3359 0.4932 -0.4482
v  -0.2356 0.4932 -0.4482
v  0.3336 0.4932 -0.4482
v  0.2333 0.4932 -0.4482
v  0.3336 0.4932 0.4518
v  0.2333 0.4932 0.4518
v  -0.3359 0.4932 0.4518
v  -0.2356 0.4932 0.4518
v  -0.2356 0.4932 0.5018
v  -0.3359 0.4932 0.5018
v  -0.3359 0.4932 -0.4982
v  -0.2356 0.4932 -0.4982
v  0.2333 0.4932 -0.4982
v  0.3336 0.4932 -0.4982
v  0.3336 0.4932 0.5018
v  0.2333 0.4932 0.5018
v  0.2333 -0.5068 0.5018
v  0.3336 -0.5068 0.5018
v  0.3336 -0.5068 -0.4982
v  0.2333 -0.5068 -0.4982
v  -0.2356 -0.5068 -0.4982
v  -0.3359 -0.5068 -0.4982
v  -0.3359 -0.5068 0.5018
v  -0.2356 -0.5068 0.5018
# 240 vertices

vn 0.0000 -1.0000 -0.0000
vn 0.0000 1.0000 -0.0000
vn 0.0000 0.0000 1.0000
vn 1.0000 0.0000 -0.0000
vn 0.0000 0.0000 -1.0000
vn -1.0000 0.0000 -0.0000
vn -0.0000 0.0000 1.0000
vn 1.0000 0.0000 0.0000
vn 1.0000 -0.0000 -0.0000
vn -1.0000 0.0000 0.0000
vn -0.0000 0.0000 -1.0000
vn -1.0000 -0.0000 -0.0000
vn 0.0000 -0.0000 1.0000
vn 0.0000 -0.0000 -1.0000
# 14 vertex normals

vt 0.2395 0.9086 0.0000
vt 0.2395 0.0914 0.0000
vt 0.7605 0.0914 0.0000
vt 0.7605 0.9086 0.0000
vt 0.0914 0.9086 0.0000
vt 0.0914 0.0914 0.0000
vt 0.9086 0.0914 0.0000
vt 0.9086 0.9086 0.0000
vt 0.2395 1.0000 0.0000
vt 0.7605 1.0000 0.0000
vt 0.7605 0.0000 0.0000
vt 0.2395 0.0000 0.0000
vt 0.0914 1.0000 0.0000
vt 0.9086 1.0000 0.0000
vt 0.9086 0.0000 0.0000
vt 0.0914 0.0000 0.0000
vt 0.0000 0.9086 0.0000
vt 0.0000 0.0914 0.0000
vt 1.0000 0.0914 0.0000
vt 1.0000 0.9086 0.0000
vt 0.0000 1.0000 0.0000
vt 1.0000 1.0000 0.0000
vt 1.0000 0.0000 0.0000
vt 0.0000 0.0000 0.0000
vt 0.1281 0.0914 0.0000
vt 0.1281 0.9086 0.0000
vt 0.8719 0.9086 0.0000
vt 0.8719 0.0914 0.0000
vt 0.1281 1.0000 0.0000
vt 0.8719 1.0000 0.0000
vt 0.8719 0.0000 0.0000
vt 0.1281 0.0000 0.0000
# 32 texture coords

g Box001
usemtl 01___Default
s 2
f 1/1/1 2/2/1 3/3/1 4/4/1 
s 4
f 5/1/2 6/2/2 7/3/2 8/4/2 
s 8
f 9/1/3 10/2/3 11/3/3 12/4/3 
s 16
f 13/5/4 14/6/4 15/7/4 16/8/4 
s 32
f 17/1/5 18/2/5 19/3/5 20/4/5 
s 64
f 21/5/6 22/6/6 23/7/6 24/8/6 
s 8
f 25/9/3 26/1/3 27/4/3 28/10/3 
f 29/11/3 30/3/3 31/2/3 32/12/3 
s 16
f 33/13/4 34/5/4 35/8/4 36/14/4 
f 37/15/4 38/7/4 39/6/4 40/16/4 
s 32
f 41/9/5 42/1/5 43/4/5 44/10/5 
f 45/11/5 46/3/5 47/2/5 48/12/5 
s 64
f 49/13/6 50/5/6 51/8/6 52/14/6 
f 53/15/6 54/7/6 55/6/6 56/16/6 
s 2
f 48/9/1 57/1/1 58/4/1 45/10/1 
f 32/11/1 59/3/1 60/2/1 29/12/1 
s 4
f 44/9/2 61/1/2 62/4/2 41/10/2 
f 28/11/2 63/3/2 64/2/2 25/12/2 
s 16
f 65/17/4 66/18/4 39/6/4 34/5/4 
f 67/19/4 68/20/4 35/8/4 38/7/4 
s 64
f 69/17/6 70/18/6 55/6/6 50/5/6 
f 71/19/6 72/20/6 51/8/6 54/7/6 
s 16
f 73/21/4 65/17/4 34/5/4 33/13/4 
f 68/20/4 74/22/4 36/14/4 35/8/4 
f 75/23/4 67/19/4 38/7/4 37/15/4 
f 66/18/4 76/24/4 40/16/4 39/6/4 
s 64
f 77/21/6 69/17/6 50/5/6 49/13/6 
f 72/20/6 78/22/6 52/14/6 51/8/6 
f 79/23/6 71/19/6 54/7/6 53/15/6 
f 70/18/6 80/24/6 56/16/6 55/6/6 
s 2
f 37/17/1 40/18/1 81/6/1 82/5/1 
f 53/19/1 56/20/1 83/8/1 84/7/1 
s 4
f 49/17/2 52/18/2 85/6/2 86/5/2 
f 33/19/2 36/20/2 87/8/2 88/7/2 
s 8
f 72/17/3 71/18/3 89/6/3 90/5/3 
f 66/19/3 65/20/3 91/8/3 92/7/3 
s 32
f 68/17/5 67/18/5 93/6/5 94/5/5 
f 70/19/5 69/20/5 95/8/5 96/7/5 
s 8
f 78/21/3 72/17/3 90/5/3 97/13/3 
f 65/20/3 73/22/3 98/14/3 91/8/3 
f 76/23/3 66/19/3 92/7/3 99/15/3 
f 71/18/3 79/24/3 100/16/3 89/6/3 
s 32
f 74/21/5 68/17/5 94/5/5 101/13/5 
f 69/20/5 77/22/5 102/14/5 95/8/5 
f 80/23/5 70/19/5 96/7/5 103/15/5 
f 67/18/5 75/24/5 104/16/5 93/6/5 
s 2
f 75/21/1 37/17/1 82/5/1 104/13/1 
f 56/20/1 80/22/1 103/14/1 83/8/1 
f 79/23/1 53/19/1 84/7/1 100/15/1 
f 40/18/1 76/24/1 99/16/1 81/6/1 
s 4
f 77/21/2 49/17/2 86/5/2 102/13/2 
f 36/20/2 74/22/2 101/14/2 87/8/2 
f 73/23/2 33/19/2 88/7/2 98/15/2 
f 52/18/2 78/24/2 97/16/2 85/6/2 
s 2
f 105/5/1 106/6/1 107/25/1 108/26/1 
f 109/7/1 110/8/1 111/27/1 112/28/1 
s 4
f 113/5/2 114/6/2 115/25/2 116/26/2 
f 117/7/2 118/8/2 119/27/2 120/28/2 
s 8
f 121/5/3 122/6/3 123/25/3 124/26/3 
f 125/7/3 126/8/3 127/27/3 128/28/3 
s 32
f 129/5/5 130/6/5 131/25/5 132/26/5 
f 133/7/5 134/8/5 135/27/5 136/28/5 
s 8
f 97/13/3 90/5/3 137/26/3 138/29/3 
f 91/8/3 98/14/3 139/30/3 140/27/3 
f 99/15/3 92/7/3 141/28/3 142/31/3 
f 89/6/3 100/16/3 143/32/3 144/25/3 
s 32
f 101/13/5 94/5/5 145/26/5 146/29/5 
f 95/8/5 102/14/5 147/30/5 148/27/5 
f 103/15/5 96/7/5 149/28/5 150/31/5 
f 93/6/5 104/16/5 151/32/5 152/25/5 
s 2
f 104/13/1 82/5/1 153/26/1 151/29/1 
f 83/8/1 103/14/1 150/30/1 154/27/1 
f 100/15/1 84/7/1 155/28/1 143/31/1 
f 81/6/1 99/16/1 142/32/1 156/25/1 
s 4
f 102/13/2 86/5/2 157/26/2 147/29/2 
f 87/8/2 101/14/2 146/30/2 158/27/2 
f 98/15/2 88/7/2 159/28/2 139/31/2 
f 85/6/2 97/16/2 138/32/2 160/25/2 
s 2
f 161/26/1 162/25/1 163/2/1 164/1/1 
f 165/28/1 166/27/1 167/4/1 168/3/1 
s 4
f 169/26/2 170/25/2 171/2/2 172/1/2 
f 173/28/2 174/27/2 175/4/2 176/3/2 
s 8
f 177/26/3 178/25/3 179/2/3 180/1/3 
f 181/28/3 182/27/3 183/4/3 184/3/3 
s 32
f 185/26/5 186/25/5 187/2/5 188/1/5 
f 189/28/5 190/27/5 191/4/5 192/3/5 
s 8
f 193/29/3 177/26/3 180/1/3 194/9/3 
f 182/27/3 195/30/3 196/10/3 183/4/3 
f 197/31/3 181/28/3 184/3/3 198/11/3 
f 178/25/3 199/32/3 200/12/3 179/2/3 
s 32
f 201/29/5 185/26/5 188/1/5 202/9/5 
f 190/27/5 203/30/5 204/10/5 191/4/5 
f 205/31/5 189/28/5 192/3/5 206/11/5 
f 186/25/5 207/32/5 208/12/5 187/2/5 
s 2
f 209/29/1 161/26/1 164/1/1 210/9/1 
f 166/27/1 211/30/1 212/10/1 167/4/1 
f 213/31/1 165/28/1 168/3/1 214/11/1 
f 162/25/1 215/32/1 216/12/1 163/2/1 
s 4
f 217/29/2 169/26/2 172/1/2 218/9/2 
f 174/27/2 219/30/2 220/10/2 175/4/2 
f 221/31/2 173/28/2 176/3/2 222/11/2 
f 170/25/2 223/32/2 224/12/2 171/2/2 
s off
f 62/4/7 61/1/7 5/1/7 8/4/7 
f 64/2/5 63/3/5 7/3/5 6/2/5 
f 85/6/5 160/25/5 115/25/5 114/6/5 
f 157/26/3 86/5/3 113/5/3 116/26/3 
f 86/5/8 85/6/8 114/6/8 113/5/8 
f 87/8/3 158/27/3 119/27/3 118/8/3 
f 159/28/5 88/7/5 117/7/5 120/28/5 
f 88/7/6 87/8/6 118/8/6 117/7/6 
f 27/4/1 26/1/1 9/1/1 12/4/1 
f 31/2/2 30/3/2 11/3/2 10/2/2 
f 89/6/2 144/25/2 123/25/2 122/6/2 
f 137/26/1 90/5/1 121/5/1 124/26/1 
f 90/5/9 89/6/9 122/6/9 121/5/9 
f 91/8/1 140/27/1 127/27/1 126/8/1 
f 141/28/2 92/7/2 125/7/2 128/28/2 
f 92/7/6 91/8/6 126/8/6 125/7/6 
f 58/4/3 57/1/3 1/1/3 4/4/3 
f 57/1/10 60/2/10 2/2/10 1/1/10 
f 60/2/11 59/3/11 3/3/11 2/2/11 
f 59/3/4 58/4/4 4/4/4 3/3/4 
f 81/6/5 156/25/5 107/25/5 106/6/5 
f 156/25/4 153/26/4 108/26/4 107/25/4 
f 153/26/3 82/5/3 105/5/3 108/26/3 
f 82/5/10 81/6/10 106/6/10 105/5/10 
f 83/8/3 154/27/3 111/27/3 110/8/3 
f 154/27/10 155/28/10 112/28/10 111/27/10 
f 155/28/5 84/7/5 109/7/5 112/28/5 
f 84/7/4 83/8/4 110/8/4 109/7/4 
f 43/4/1 42/1/1 17/1/1 20/4/1 
f 47/2/2 46/3/2 19/3/2 18/2/2 
f 93/6/2 152/25/2 131/25/2 130/6/2 
f 145/26/1 94/5/1 129/5/1 132/26/1 
f 94/5/12 93/6/12 130/6/12 129/5/12 
f 95/8/1 148/27/1 135/27/1 134/8/1 
f 149/28/2 96/7/2 133/7/2 136/28/2 
f 96/7/4 95/8/4 134/8/4 133/7/4 
f 51/8/1 50/5/1 21/5/1 24/8/1 
f 50/5/13 55/6/13 22/6/13 21/5/13 
f 55/6/2 54/7/2 23/7/2 22/6/2 
f 54/7/5 51/8/5 24/8/5 23/7/5 
f 35/8/1 34/5/1 13/5/1 16/8/1 
f 34/5/14 39/6/14 14/6/14 13/5/14 
f 39/6/2 38/7/2 15/7/2 14/6/2 
f 38/7/3 35/8/3 16/8/3 15/7/3 
f 193/32/3 194/12/3 225/12/3 226/32/3 
f 25/12/4 64/2/4 171/2/4 224/12/4 
f 64/2/8 61/1/8 172/1/8 171/2/8 
f 61/1/4 44/9/4 218/9/4 172/1/4 
f 204/9/5 203/29/5 227/29/5 228/9/5 
f 147/29/6 157/26/6 169/26/6 217/29/6 
f 157/26/6 160/25/6 170/25/6 169/26/6 
f 160/25/6 138/32/6 223/32/6 170/25/6 
f 201/30/5 202/10/5 229/10/5 230/30/5 
f 41/10/6 62/4/6 175/4/6 220/10/6 
f 62/4/6 63/3/6 176/3/6 175/4/6 
f 63/3/6 28/11/6 222/11/6 176/3/6 
f 196/11/3 195/31/3 231/31/3 232/11/3 
f 139/31/4 159/28/4 173/28/4 221/31/4 
f 159/28/8 158/27/8 174/27/8 173/28/8 
f 158/27/4 146/30/4 219/30/4 174/27/4 
f 197/32/3 198/12/3 233/12/3 234/32/3 
f 29/12/6 60/2/6 163/2/6 216/12/6 
f 60/2/10 57/1/10 164/1/10 163/2/10 
f 57/1/6 48/9/6 210/9/6 164/1/6 
f 208/9/5 207/29/5 235/29/5 236/9/5 
f 151/29/4 153/26/4 161/26/4 209/29/4 
f 153/26/4 156/25/4 162/25/4 161/26/4 
f 156/25/4 142/32/4 215/32/4 162/25/4 
f 205/30/5 206/10/5 237/10/5 238/30/5 
f 45/10/4 58/4/4 167/4/4 212/10/4 
f 58/4/4 59/3/4 168/3/4 167/4/4 
f 59/3/4 32/11/4 214/11/4 168/3/4 
f 200/11/3 199/31/3 239/31/3 240/11/3 
f 143/31/6 155/28/6 165/28/6 213/31/6 
f 155/28/10 154/27/10 166/27/10 165/28/10 
f 154/27/6 150/30/6 211/30/6 166/27/6 
f 137/26/6 144/25/6 178/25/6 177/26/6 
f 144/25/12 143/32/12 199/32/12 178/25/12 
f 143/31/6 213/31/6 239/31/6 199/31/6 
f 213/31/1 214/11/1 240/11/1 239/31/1 
f 214/11/4 32/11/4 200/11/4 240/11/4 
f 32/12/4 31/2/4 179/2/4 200/12/4 
f 31/2/9 26/1/9 180/1/9 179/2/9 
f 26/1/4 25/9/4 194/9/4 180/1/4 
f 25/12/4 224/12/4 225/12/4 194/12/4 
f 224/12/2 223/32/2 226/32/2 225/12/2 
f 223/32/6 138/32/6 193/32/6 226/32/6 
f 138/29/12 137/26/12 177/26/12 193/29/12 
f 141/28/9 140/27/9 182/27/9 181/28/9 
f 140/27/4 139/30/4 195/30/4 182/27/4 
f 139/31/4 221/31/4 231/31/4 195/31/4 
f 221/31/2 222/11/2 232/11/2 231/31/2 
f 222/11/6 28/11/6 196/11/6 232/11/6 
f 28/10/12 27/4/12 183/4/12 196/10/12 
f 27/4/6 30/3/6 184/3/6 183/4/6 
f 30/3/12 29/11/12 198/11/12 184/3/12 
f 29/12/6 216/12/6 233/12/6 198/12/6 
f 216/12/1 215/32/1 234/32/1 233/12/1 
f 215/32/4 142/32/4 197/32/4 234/32/4 
f 142/31/4 141/28/4 181/28/4 197/31/4 
f 145/26/4 152/25/4 186/25/4 185/26/4 
f 152/25/9 151/32/9 207/32/9 186/25/9 
f 151/29/4 209/29/4 235/29/4 207/29/4 
f 209/29/1 210/9/1 236/9/1 235/29/1 
f 210/9/6 48/9/6 208/9/6 236/9/6 
f 48/12/6 47/2/6 187/2/6 208/12/6 
f 47/2/12 42/1/12 188/1/12 187/2/12 
f 42/1/6 41/9/6 202/9/6 188/1/6 
f 41/10/6 220/10/6 229/10/6 202/10/6 
f 220/10/2 219/30/2 230/30/2 229/10/2 
f 219/30/4 146/30/4 201/30/4 230/30/4 
f 146/29/9 145/26/9 185/26/9 201/29/9 
f 149/28/12 148/27/12 190/27/12 189/28/12 
f 148/27/6 147/30/6 203/30/6 190/27/6 
f 147/29/6 217/29/6 227/29/6 203/29/6 
f 217/29/2 218/9/2 228/9/2 227/29/2 
f 218/9/4 44/9/4 204/9/4 228/9/4 
f 44/10/9 43/4/9 191/4/9 204/10/9 
f 43/4/4 46/3/4 192/3/4 191/4/4 
f 46/3/9 45/11/9 206/11/9 192/3/9 
f 45/10/4 212/10/4 237/10/4 206/10/4 
f 212/10/1 211/30/1 238/30/1 237/10/1 
f 211/30/6 150/30/6 205/30/6 238/30/6 
f 150/31/6 149/28/6 189/28/6 205/31/6 
s 1
f 144/15/2 31/6/2 10/25/2 123/26/2 
f 124/25/1 9/26/1 26/5/1 137/13/1 
s off
f 124/25/3 123/25/3 10/25/3 9/1/3 
s 1
f 128/25/2 11/28/2 30/7/2 141/16/2 
f 140/14/1 27/8/1 12/27/1 127/26/1 
s off
f 128/25/3 127/27/3 12/27/3 11/3/3 
f 30/7/5 27/4/5 140/14/5 141/28/5 
s 1
f 116/29/3 5/31/3 61/31/3 157/13/3 
f 160/13/5 64/31/5 6/29/5 115/29/5 
s off
f 116/29/2 115/25/2 6/29/2 5/1/2 
f 61/31/1 64/2/1 160/13/1 157/26/1 
s 1
f 120/25/5 7/30/5 63/32/5 159/14/5 
f 158/14/3 62/32/3 8/32/3 119/26/3 
s off
f 120/25/2 119/27/2 8/32/2 7/3/2 
f 63/32/1 62/4/1 158/14/1 159/28/1 
s 1
f 132/2/1 17/9/1 42/5/1 145/15/1 
f 148/16/1 43/8/1 20/10/1 135/1/1 
f 152/15/2 47/6/2 18/9/2 131/1/2 
f 136/2/2 19/10/2 46/7/2 149/16/2 
s off
f 132/2/5 131/25/5 18/9/5 17/1/5 
f 42/5/3 47/2/3 152/15/3 145/26/3 
f 136/2/5 135/27/5 20/10/5 19/3/5 
f 46/7/3 43/4/3 148/16/3 149/28/3 
# 249 polygons

